<mxfile host="app.diagrams.net" modified="2024-03-04T23:10:17.547Z" agent="Mozilla/5.0 (Windows NT 10.0; Win64; x64) AppleWebKit/537.36 (KHTML, like Gecko) Chrome/122.0.0.0 Safari/537.36" etag="s6hSud4356P5rn3XAaLa" version="23.1.5" type="device">
  <diagram name="Page-1" id="KCxFZNtYI8n1f-mjtPoK">
    <mxGraphModel dx="529" dy="359" grid="1" gridSize="10" guides="1" tooltips="1" connect="1" arrows="1" fold="1" page="1" pageScale="1" pageWidth="827" pageHeight="1169" math="0" shadow="0">
      <root>
        <mxCell id="0" />
        <mxCell id="1" parent="0" />
        <mxCell id="RJYJ0L072i05vWmIU888-3" value="decide to make a reservation or request for room service" style="rounded=1;whiteSpace=wrap;html=1;arcSize=40;fontColor=#000000;fillColor=#ffffc0;strokeColor=#ff0000;" vertex="1" parent="1">
          <mxGeometry x="40" y="120" width="200" height="40" as="geometry" />
        </mxCell>
        <mxCell id="RJYJ0L072i05vWmIU888-7" style="edgeStyle=orthogonalEdgeStyle;rounded=0;orthogonalLoop=1;jettySize=auto;html=1;" edge="1" parent="1" source="RJYJ0L072i05vWmIU888-5">
          <mxGeometry relative="1" as="geometry">
            <mxPoint x="140" y="120" as="targetPoint" />
          </mxGeometry>
        </mxCell>
        <mxCell id="RJYJ0L072i05vWmIU888-5" value="" style="ellipse;html=1;shape=startState;fillColor=#000000;strokeColor=#ff0000;" vertex="1" parent="1">
          <mxGeometry x="125" y="20" width="30" height="30" as="geometry" />
        </mxCell>
        <mxCell id="RJYJ0L072i05vWmIU888-6" value="" style="edgeStyle=orthogonalEdgeStyle;html=1;verticalAlign=bottom;endArrow=open;endSize=8;strokeColor=#ff0000;rounded=0;entryX=0.5;entryY=0;entryDx=0;entryDy=0;" edge="1" source="RJYJ0L072i05vWmIU888-5" parent="1" target="RJYJ0L072i05vWmIU888-3">
          <mxGeometry relative="1" as="geometry">
            <mxPoint x="125" y="130" as="targetPoint" />
          </mxGeometry>
        </mxCell>
        <mxCell id="RJYJ0L072i05vWmIU888-8" value="" style="edgeStyle=orthogonalEdgeStyle;html=1;verticalAlign=bottom;endArrow=open;endSize=8;strokeColor=#000000;rounded=0;exitX=0.793;exitY=0.992;exitDx=0;exitDy=0;exitPerimeter=0;" edge="1" parent="1" source="RJYJ0L072i05vWmIU888-3">
          <mxGeometry relative="1" as="geometry">
            <mxPoint x="160" y="240" as="targetPoint" />
            <mxPoint x="160" y="170" as="sourcePoint" />
          </mxGeometry>
        </mxCell>
        <mxCell id="RJYJ0L072i05vWmIU888-9" value="" style="edgeStyle=orthogonalEdgeStyle;html=1;verticalAlign=bottom;endArrow=open;endSize=8;strokeColor=#000000;rounded=0;exitX=0.217;exitY=1.025;exitDx=0;exitDy=0;exitPerimeter=0;" edge="1" parent="1" source="RJYJ0L072i05vWmIU888-3">
          <mxGeometry relative="1" as="geometry">
            <mxPoint x="80" y="230" as="targetPoint" />
            <mxPoint x="80" y="160" as="sourcePoint" />
          </mxGeometry>
        </mxCell>
        <mxCell id="RJYJ0L072i05vWmIU888-10" value="Activity" style="rounded=1;whiteSpace=wrap;html=1;arcSize=40;fontColor=#000000;fillColor=#ffffc0;strokeColor=#ff0000;" vertex="1" parent="1">
          <mxGeometry x="290" y="310" width="120" height="40" as="geometry" />
        </mxCell>
        <mxCell id="RJYJ0L072i05vWmIU888-11" value="" style="edgeStyle=orthogonalEdgeStyle;html=1;verticalAlign=bottom;endArrow=open;endSize=8;strokeColor=#ff0000;rounded=0;" edge="1" source="RJYJ0L072i05vWmIU888-10" parent="1">
          <mxGeometry relative="1" as="geometry">
            <mxPoint x="350" y="410" as="targetPoint" />
          </mxGeometry>
        </mxCell>
      </root>
    </mxGraphModel>
  </diagram>
</mxfile>
